G04 ================== begin FILE IDENTIFICATION RECORD ==================*
G04 Layout Name:  C:/USERS/ADMIN/DOCUMENTS/ETTI/TCAD/CEF/L1/allegro/ENACHE_PCB.brd*
G04 Film Name:    FAB*
G04 File Format:  Gerber RS274X*
G04 File Origin:  Cadence Allegro 17.2-S025*
G04 Origin Date:  Fri Dec 13 21:36:05 2024*
G04 *
G04 Layer:  MANUFACTURING/XSECTION_CHART*
G04 Layer:  MANUFACTURING/NCLEGEND-1-2*
G04 Layer:  BOARD GEOMETRY/DIMENSION*
G04 Layer:  BOARD GEOMETRY/DESIGN_OUTLINE*
G04 *
G04 Offset:    (0.0000 0.0000)*
G04 Mirror:    No*
G04 Mode:      Positive*
G04 Rotation:  0*
G04 FullContactRelief:  No*
G04 UndefLineWidth:     0.3000*
G04 ================== end FILE IDENTIFICATION RECORD ====================*
%FSLAX25Y25*MOIN*%
%IR0*IPPOS*OFA0.00000B0.00000*MIA0B0*SFA1.00000B1.00000*%
%AMMACRO10*
1,1,.011811,.025,0.0*
20,1,.011811,.025,0.0,.02462,-.004341,0.0*
1,1,.011811,.02462,-.004341*
20,1,.011811,.02462,-.004341,.023492,-.008551,0.0*
1,1,.011811,.023492,-.008551*
20,1,.011811,.023492,-.008551,.021651,-.0125,0.0*
1,1,.011811,.021651,-.0125*
20,1,.011811,.021651,-.0125,.019151,-.01607,0.0*
1,1,.011811,.019151,-.01607*
20,1,.011811,.019151,-.01607,.01607,-.019151,0.0*
1,1,.011811,.01607,-.019151*
20,1,.011811,.01607,-.019151,.0125,-.021651,0.0*
1,1,.011811,.0125,-.021651*
20,1,.011811,.0125,-.021651,.008551,-.023492,0.0*
1,1,.011811,.008551,-.023492*
20,1,.011811,.008551,-.023492,.004341,-.02462,0.0*
1,1,.011811,.004341,-.02462*
20,1,.011811,.004341,-.02462,0.0,-.025,0.0*
1,1,.011811,0.0,-.025*
20,1,.011811,0.0,-.025,-.004341,-.02462,0.0*
1,1,.011811,-.004341,-.02462*
20,1,.011811,-.004341,-.02462,-.008551,-.023492,0.0*
1,1,.011811,-.008551,-.023492*
20,1,.011811,-.008551,-.023492,-.0125,-.021651,0.0*
1,1,.011811,-.0125,-.021651*
20,1,.011811,-.0125,-.021651,-.01607,-.019151,0.0*
1,1,.011811,-.01607,-.019151*
20,1,.011811,-.01607,-.019151,-.019151,-.01607,0.0*
1,1,.011811,-.019151,-.01607*
20,1,.011811,-.019151,-.01607,-.021651,-.0125,0.0*
1,1,.011811,-.021651,-.0125*
20,1,.011811,-.021651,-.0125,-.023492,-.008551,0.0*
1,1,.011811,-.023492,-.008551*
20,1,.011811,-.023492,-.008551,-.02462,-.004341,0.0*
1,1,.011811,-.02462,-.004341*
20,1,.011811,-.02462,-.004341,-.025,0.0,0.0*
1,1,.011811,-.025,0.0*
20,1,.011811,-.025,0.0,-.02462,.004341,0.0*
1,1,.011811,-.02462,.004341*
20,1,.011811,-.02462,.004341,-.023492,.008551,0.0*
1,1,.011811,-.023492,.008551*
20,1,.011811,-.023492,.008551,-.021651,.0125,0.0*
1,1,.011811,-.021651,.0125*
20,1,.011811,-.021651,.0125,-.019151,.01607,0.0*
1,1,.011811,-.019151,.01607*
20,1,.011811,-.019151,.01607,-.01607,.019151,0.0*
1,1,.011811,-.01607,.019151*
20,1,.011811,-.01607,.019151,-.0125,.021651,0.0*
1,1,.011811,-.0125,.021651*
20,1,.011811,-.0125,.021651,-.008551,.023492,0.0*
1,1,.011811,-.008551,.023492*
20,1,.011811,-.008551,.023492,-.004341,.02462,0.0*
1,1,.011811,-.004341,.02462*
20,1,.011811,-.004341,.02462,0.0,.025,0.0*
1,1,.011811,0.0,.025*
20,1,.011811,0.0,.025,.004341,.02462,0.0*
1,1,.011811,.004341,.02462*
20,1,.011811,.004341,.02462,.008551,.023492,0.0*
1,1,.011811,.008551,.023492*
20,1,.011811,.008551,.023492,.0125,.021651,0.0*
1,1,.011811,.0125,.021651*
20,1,.011811,.0125,.021651,.01607,.019151,0.0*
1,1,.011811,.01607,.019151*
20,1,.011811,.01607,.019151,.019151,.01607,0.0*
1,1,.011811,.019151,.01607*
20,1,.011811,.019151,.01607,.021651,.0125,0.0*
1,1,.011811,.021651,.0125*
20,1,.011811,.021651,.0125,.023492,.008551,0.0*
1,1,.011811,.023492,.008551*
20,1,.011811,.023492,.008551,.02462,.004341,0.0*
1,1,.011811,.02462,.004341*
20,1,.011811,.02462,.004341,.025,0.0,0.0*
1,1,.011811,.025,0.0*
1,1,.011811,.0125,0.0*
20,1,.011811,.0125,0.0,-.0125,0.0,0.0*
1,1,.011811,-.0125,0.0*
1,1,.011811,0.0,.0125*
20,1,.011811,0.0,.0125,0.0,-.0125,0.0*
1,1,.011811,0.0,-.0125*
%
%ADD10MACRO10*%
%ADD11C,.005906*%
%ADD12C,.011811*%
G75*
%LPD*%
G75*
G36*
G01X269232Y237036D02*
Y234769D01*
X271732D01*
Y37729D01*
X269232D01*
Y35461D01*
X284232D01*
Y37729D01*
X281732D01*
Y234769D01*
X284232D01*
Y237036D01*
X269232D01*
G37*
G36*
G01X249232Y35462D02*
Y37729D01*
X309232D01*
Y35462D01*
X249232D01*
G37*
G36*
G01Y234769D02*
Y237036D01*
X309232D01*
Y234769D01*
X249232D01*
G37*
G54D10*
X2430Y-97146D03*
X18504Y97244D03*
X38976Y21260D03*
X47638Y48819D03*
X48425Y91732D03*
X36614Y90551D03*
X53937Y99213D03*
X64173Y25591D03*
X62860Y51313D03*
X70079Y35433D03*
X80315Y99213D03*
X124409Y89370D03*
X122047Y64567D03*
G54D11*
G01X221194Y17749D02*
Y21686D01*
X222507D01*
X223031Y21489D01*
X223425Y21227D01*
X223753Y20833D01*
X224016Y20374D01*
X224081Y19718D01*
X224016Y19061D01*
X223753Y18602D01*
X223425Y18208D01*
X223031Y17946D01*
X222507Y17749D01*
X221194D01*
G01X228478D02*
X225853D01*
Y21686D01*
X228478D01*
G01X227428Y19783D02*
X225853D01*
G01X230315Y18274D02*
X230840Y17946D01*
X231430Y17749D01*
X231956D01*
X232480Y17946D01*
X232874Y18274D01*
X233071Y18733D01*
X232940Y19193D01*
X232611Y19587D01*
X232021Y19849D01*
X231233Y19980D01*
X230774Y20243D01*
X230578Y20702D01*
X230709Y21161D01*
X231037Y21489D01*
X231496Y21686D01*
X231956D01*
X232415Y21555D01*
X232808Y21227D01*
G01X235433Y21686D02*
X237008D01*
G01X236220D02*
Y17749D01*
G01X235433D02*
X237008D01*
G01X241142Y19718D02*
X242454D01*
Y18537D01*
X242060Y18143D01*
X241601Y17880D01*
X240945Y17749D01*
X240289Y17880D01*
X239830Y18143D01*
X239436Y18537D01*
X239173Y18996D01*
X239042Y19521D01*
Y19980D01*
X239173Y20374D01*
X239436Y20833D01*
X239830Y21227D01*
X240223Y21489D01*
X240748Y21686D01*
X241207D01*
X241732Y21555D01*
X242126Y21293D01*
G01X243767Y17749D02*
Y21686D01*
X246785Y17749D01*
Y21686D01*
G01X255774Y21358D02*
X255381Y21555D01*
X254921Y21686D01*
X254396D01*
X253806Y21489D01*
X253346Y21161D01*
X253019Y20768D01*
X252756Y20111D01*
X252690Y19521D01*
X252822Y18930D01*
X253019Y18537D01*
X253412Y18143D01*
X253871Y17880D01*
X254331Y17749D01*
X254790D01*
X255249Y17880D01*
X255643Y18077D01*
X255971Y18340D01*
G01X257546Y17749D02*
Y21686D01*
X259186D01*
X259711Y21489D01*
X260039Y21227D01*
X260170Y20702D01*
X260039Y20177D01*
X259646Y19849D01*
X259186Y19652D01*
X257546D01*
G01X259186D02*
X260170Y17749D01*
G01X263386D02*
X262861Y17815D01*
X262402Y18077D01*
X262008Y18471D01*
X261745Y18930D01*
X261614Y19455D01*
Y19980D01*
X261745Y20505D01*
X262008Y20965D01*
X262402Y21358D01*
X262861Y21620D01*
X263386Y21686D01*
X263911Y21620D01*
X264370Y21358D01*
X264764Y20965D01*
X265026Y20505D01*
X265157Y19980D01*
Y19455D01*
X265026Y18930D01*
X264764Y18471D01*
X264370Y18077D01*
X263911Y17815D01*
X263386Y17749D01*
G01X266535Y18274D02*
X267060Y17946D01*
X267651Y17749D01*
X268176D01*
X268701Y17946D01*
X269094Y18274D01*
X269291Y18733D01*
X269160Y19193D01*
X268832Y19587D01*
X268241Y19849D01*
X267454Y19980D01*
X266995Y20243D01*
X266798Y20702D01*
X266929Y21161D01*
X267257Y21489D01*
X267717Y21686D01*
X268176D01*
X268635Y21555D01*
X269029Y21227D01*
G01X271063Y18274D02*
X271588Y17946D01*
X272178Y17749D01*
X272704D01*
X273228Y17946D01*
X273622Y18274D01*
X273819Y18733D01*
X273688Y19193D01*
X273359Y19587D01*
X272769Y19849D01*
X271981Y19980D01*
X271522Y20243D01*
X271326Y20702D01*
X271457Y21161D01*
X271785Y21489D01*
X272244Y21686D01*
X272704D01*
X273163Y21555D01*
X273556Y21227D01*
G01X280118Y18274D02*
X280643Y17946D01*
X281233Y17749D01*
X281759D01*
X282283Y17946D01*
X282677Y18274D01*
X282874Y18733D01*
X282743Y19193D01*
X282415Y19587D01*
X281824Y19849D01*
X281037Y19980D01*
X280578Y20243D01*
X280381Y20702D01*
X280512Y21161D01*
X280840Y21489D01*
X281299Y21686D01*
X281759D01*
X282218Y21555D01*
X282611Y21227D01*
G01X287336Y17749D02*
X284711D01*
Y21686D01*
X287336D01*
G01X286286Y19783D02*
X284711D01*
G01X291995Y21358D02*
X291601Y21555D01*
X291142Y21686D01*
X290617D01*
X290026Y21489D01*
X289567Y21161D01*
X289239Y20768D01*
X288976Y20111D01*
X288911Y19521D01*
X289042Y18930D01*
X289239Y18537D01*
X289633Y18143D01*
X290092Y17880D01*
X290551Y17749D01*
X291011D01*
X291470Y17880D01*
X291863Y18077D01*
X292192Y18340D01*
G01X295079Y21686D02*
Y17749D01*
G01X293570Y21686D02*
X296588D01*
G01X298819D02*
X300394D01*
G01X299606D02*
Y17749D01*
G01X298819D02*
X300394D01*
G01X304134D02*
X303609Y17815D01*
X303150Y18077D01*
X302756Y18471D01*
X302493Y18930D01*
X302362Y19455D01*
Y19980D01*
X302493Y20505D01*
X302756Y20965D01*
X303150Y21358D01*
X303609Y21620D01*
X304134Y21686D01*
X304659Y21620D01*
X305118Y21358D01*
X305512Y20965D01*
X305774Y20505D01*
X305906Y19980D01*
Y19455D01*
X305774Y18930D01*
X305512Y18471D01*
X305118Y18077D01*
X304659Y17815D01*
X304134Y17749D01*
G01X307152D02*
Y21686D01*
X310170Y17749D01*
Y21686D01*
G01X319160Y21358D02*
X318767Y21555D01*
X318307Y21686D01*
X317782D01*
X317191Y21489D01*
X316732Y21161D01*
X316404Y20768D01*
X316142Y20111D01*
X316076Y19521D01*
X316207Y18930D01*
X316404Y18537D01*
X316798Y18143D01*
X317257Y17880D01*
X317717Y17749D01*
X318176D01*
X318635Y17880D01*
X319029Y18077D01*
X319357Y18340D01*
G01X320866Y17749D02*
Y21686D01*
G01X323622D02*
Y17749D01*
G01Y19718D02*
X320866D01*
G01X325131Y17749D02*
X326772Y21686D01*
X328412Y17749D01*
G01X327822Y19127D02*
X325722D01*
G01X329987Y17749D02*
Y21686D01*
X331627D01*
X332152Y21489D01*
X332480Y21227D01*
X332611Y20702D01*
X332480Y20177D01*
X332087Y19849D01*
X331627Y19652D01*
X329987D01*
G01X331627D02*
X332611Y17749D01*
G01X335827Y21686D02*
Y17749D01*
G01X334318Y21686D02*
X337336D01*
G01X218406Y16437D02*
X222343D01*
G01X222933D02*
X226870D01*
G01X227461D02*
X231398D01*
G01X231988D02*
X235925D01*
G01X236516D02*
X240453D01*
G01X241043D02*
X244980D01*
G01X245571D02*
X249508D01*
G01X250098D02*
X254035D01*
G01X254626D02*
X258563D01*
G01X259154D02*
X263091D01*
G01X263681D02*
X267618D01*
G01X268209D02*
X272146D01*
G01X272736D02*
X276673D01*
G01X277264D02*
X281201D01*
G01X281791D02*
X285728D01*
G01X286319D02*
X290256D01*
G01X290846D02*
X294783D01*
G01X295374D02*
X299311D01*
G01X299902D02*
X303839D01*
G01X304429D02*
X308366D01*
G01X308957D02*
X312894D01*
G01X313484D02*
X317421D01*
G01X318012D02*
X321949D01*
G01X322539D02*
X326476D01*
G01X327067D02*
X331004D01*
G01X331594D02*
X335531D01*
G01X336122D02*
X340059D01*
G01X231693Y14600D02*
Y10663D01*
G01X230184Y14600D02*
X233202D01*
G01X236220Y10663D02*
X235695Y10728D01*
X235236Y10991D01*
X234843Y11384D01*
X234580Y11844D01*
X234449Y12369D01*
Y12894D01*
X234580Y13419D01*
X234843Y13878D01*
X235236Y14272D01*
X235695Y14534D01*
X236220Y14600D01*
X236745Y14534D01*
X237205Y14272D01*
X237598Y13878D01*
X237861Y13419D01*
X237992Y12894D01*
Y12369D01*
X237861Y11844D01*
X237598Y11384D01*
X237205Y10991D01*
X236745Y10728D01*
X236220Y10663D01*
G01X240748Y14600D02*
Y10663D01*
G01X239239Y14600D02*
X242257D01*
G01X243635Y10663D02*
X245276Y14600D01*
X246916Y10663D01*
G01X246326Y12041D02*
X244226D01*
G01X248491Y14600D02*
Y10663D01*
X251115D01*
G01X258858Y14600D02*
Y10663D01*
G01X257349Y14600D02*
X260367D01*
G01X262008Y10663D02*
Y14600D01*
G01X264764D02*
Y10663D01*
G01Y12631D02*
X262008D01*
G01X267126Y14600D02*
X268701D01*
G01X267913D02*
Y10663D01*
G01X267126D02*
X268701D01*
G01X273885Y14272D02*
X273491Y14469D01*
X273031Y14600D01*
X272507D01*
X271916Y14403D01*
X271457Y14075D01*
X271129Y13681D01*
X270866Y13025D01*
X270800Y12434D01*
X270932Y11844D01*
X271129Y11450D01*
X271522Y11056D01*
X271981Y10794D01*
X272441Y10663D01*
X272900D01*
X273359Y10794D01*
X273753Y10991D01*
X274081Y11253D01*
G01X275525Y10663D02*
Y14600D01*
G01X278019D02*
X275525Y12172D01*
G01X278412Y10663D02*
X276641Y13287D01*
G01X279987Y10663D02*
Y14600D01*
X283005Y10663D01*
Y14600D01*
G01X287336Y10663D02*
X284711D01*
Y14600D01*
X287336D01*
G01X286286Y12697D02*
X284711D01*
G01X289173Y11187D02*
X289698Y10859D01*
X290289Y10663D01*
X290814D01*
X291339Y10859D01*
X291732Y11187D01*
X291929Y11647D01*
X291798Y12106D01*
X291470Y12500D01*
X290879Y12762D01*
X290092Y12894D01*
X289633Y13156D01*
X289436Y13615D01*
X289567Y14075D01*
X289895Y14403D01*
X290354Y14600D01*
X290814D01*
X291273Y14469D01*
X291667Y14140D01*
G01X293701Y11187D02*
X294226Y10859D01*
X294816Y10663D01*
X295341D01*
X295866Y10859D01*
X296260Y11187D01*
X296457Y11647D01*
X296326Y12106D01*
X295997Y12500D01*
X295407Y12762D01*
X294619Y12894D01*
X294160Y13156D01*
X293963Y13615D01*
X294094Y14075D01*
X294422Y14403D01*
X294882Y14600D01*
X295341D01*
X295800Y14469D01*
X296194Y14140D01*
G01X304134Y10663D02*
Y14600D01*
X303346Y13812D01*
G01Y10663D02*
X304921D01*
G01X308661Y10531D02*
X308530Y10597D01*
Y10728D01*
X308661Y10794D01*
X308793Y10728D01*
Y10597D01*
X308661Y10531D01*
G01X311942Y12303D02*
X312402Y12762D01*
X312795Y13025D01*
X313320Y13156D01*
X313780Y13025D01*
X314107Y12762D01*
X314370Y12369D01*
X314436Y11909D01*
X314370Y11516D01*
X314107Y11122D01*
X313714Y10794D01*
X313255Y10663D01*
X312730Y10794D01*
X312270Y11187D01*
X312008Y11778D01*
X311942Y12434D01*
X312074Y13287D01*
X312270Y13746D01*
X312598Y14206D01*
X313058Y14534D01*
X313517Y14600D01*
X313976Y14469D01*
X314304Y14140D01*
G01X320538Y10663D02*
Y14600D01*
X322244Y11319D01*
X323950Y14600D01*
Y10663D01*
G01X325066D02*
Y14600D01*
X326772Y11319D01*
X328478Y14600D01*
Y10663D01*
G01X276732Y242941D02*
X272795D01*
X273583Y242154D01*
G01X276732D02*
Y243729D01*
G01X275420Y246616D02*
Y248322D01*
G01X273452Y250750D02*
X273058Y251143D01*
X272861Y251603D01*
X272795Y252128D01*
X272926Y252784D01*
X273255Y253243D01*
X273648Y253374D01*
X274042Y253309D01*
X274370Y253046D01*
X275026Y251734D01*
X275485Y251143D01*
X276142Y250750D01*
X276732Y250619D01*
Y253374D01*
G01X323340Y27100D02*
X326227Y29987D01*
G01X324783Y30511D02*
Y26574D01*
G01X326227Y27100D02*
X323340Y29987D01*
G01X322815Y28543D02*
X326752D01*
G01X336988Y27756D02*
X337513Y27428D01*
X338104Y27231D01*
X338629D01*
X339154Y27428D01*
X339547Y27756D01*
X339744Y28215D01*
X339613Y28674D01*
X339285Y29068D01*
X338694Y29330D01*
X337907Y29462D01*
X337448Y29724D01*
X337251Y30183D01*
X337382Y30643D01*
X337710Y30971D01*
X338169Y31168D01*
X338629D01*
X339088Y31037D01*
X339481Y30708D01*
G01X341450Y31168D02*
Y28346D01*
X341713Y27756D01*
X342237Y27362D01*
X342894Y27231D01*
X343550Y27362D01*
X344075Y27756D01*
X344337Y28346D01*
Y31168D01*
G01X346109Y27231D02*
Y31168D01*
X347749D01*
X348274Y30971D01*
X348602Y30708D01*
X348733Y30183D01*
X348602Y29659D01*
X348209Y29330D01*
X347749Y29133D01*
X346109D01*
G01X347749D02*
X348733Y27231D01*
G01X350702D02*
Y31168D01*
X353196D01*
G01X352277Y29265D02*
X350702D01*
G01X354836Y27231D02*
X356476Y31168D01*
X358117Y27231D01*
G01X357526Y28609D02*
X355426D01*
G01X362448Y30840D02*
X362054Y31037D01*
X361594Y31168D01*
X361070D01*
X360479Y30971D01*
X360020Y30643D01*
X359692Y30249D01*
X359429Y29593D01*
X359363Y29002D01*
X359495Y28412D01*
X359692Y28018D01*
X360085Y27624D01*
X360544Y27362D01*
X361004Y27231D01*
X361463D01*
X361922Y27362D01*
X362316Y27559D01*
X362644Y27821D01*
G01X366844Y27231D02*
X364219D01*
Y31168D01*
X366844D01*
G01X365794Y29265D02*
X364219D01*
G01X314416Y36417D02*
Y32480D01*
X317041D01*
G01X319009Y35761D02*
X319403Y36154D01*
X319862Y36351D01*
X320387Y36417D01*
X321043Y36286D01*
X321503Y35957D01*
X321634Y35564D01*
X321568Y35170D01*
X321306Y34842D01*
X319993Y34186D01*
X319403Y33727D01*
X319009Y33070D01*
X318878Y32480D01*
X321634D01*
G01X329836Y34580D02*
X330098Y34776D01*
X330295Y35104D01*
X330426Y35564D01*
X330295Y35957D01*
X330033Y36220D01*
X329574Y36417D01*
X327802D01*
Y32480D01*
X329967D01*
X330426Y32743D01*
X330689Y33136D01*
X330820Y33595D01*
X330689Y34055D01*
X330295Y34448D01*
X329836Y34580D01*
X327802D01*
G01X333839Y32480D02*
X333313Y32546D01*
X332854Y32808D01*
X332461Y33202D01*
X332198Y33661D01*
X332067Y34186D01*
Y34711D01*
X332198Y35236D01*
X332461Y35695D01*
X332854Y36089D01*
X333313Y36351D01*
X333839Y36417D01*
X334363Y36351D01*
X334823Y36089D01*
X335217Y35695D01*
X335479Y35236D01*
X335610Y34711D01*
Y34186D01*
X335479Y33661D01*
X335217Y33202D01*
X334823Y32808D01*
X334363Y32546D01*
X333839Y32480D01*
G01X338366Y36417D02*
Y32480D01*
G01X336857Y36417D02*
X339875D01*
G01X342894D02*
Y32480D01*
G01X341385Y36417D02*
X344403D01*
G01X347421Y32480D02*
X346896Y32546D01*
X346437Y32808D01*
X346043Y33202D01*
X345781Y33661D01*
X345650Y34186D01*
Y34711D01*
X345781Y35236D01*
X346043Y35695D01*
X346437Y36089D01*
X346896Y36351D01*
X347421Y36417D01*
X347946Y36351D01*
X348406Y36089D01*
X348799Y35695D01*
X349062Y35236D01*
X349193Y34711D01*
Y34186D01*
X349062Y33661D01*
X348799Y33202D01*
X348406Y32808D01*
X347946Y32546D01*
X347421Y32480D01*
G01X350243D02*
Y36417D01*
X351949Y33136D01*
X353655Y36417D01*
Y32480D01*
G01X362448Y36089D02*
X362054Y36286D01*
X361594Y36417D01*
X361070D01*
X360479Y36220D01*
X360020Y35892D01*
X359692Y35498D01*
X359429Y34842D01*
X359363Y34252D01*
X359495Y33661D01*
X359692Y33267D01*
X360085Y32874D01*
X360544Y32611D01*
X361004Y32480D01*
X361463D01*
X361922Y32611D01*
X362316Y32808D01*
X362644Y33070D01*
G01X365531Y32480D02*
X365006Y32546D01*
X364547Y32808D01*
X364154Y33202D01*
X363891Y33661D01*
X363760Y34186D01*
Y34711D01*
X363891Y35236D01*
X364154Y35695D01*
X364547Y36089D01*
X365006Y36351D01*
X365531Y36417D01*
X366056Y36351D01*
X366516Y36089D01*
X366909Y35695D01*
X367172Y35236D01*
X367303Y34711D01*
Y34186D01*
X367172Y33661D01*
X366909Y33202D01*
X366516Y32808D01*
X366056Y32546D01*
X365531Y32480D01*
G01X368550D02*
Y36417D01*
X371568Y32480D01*
Y36417D01*
G01X373143Y32480D02*
Y36417D01*
X374456D01*
X374980Y36220D01*
X375374Y35957D01*
X375702Y35564D01*
X375965Y35104D01*
X376030Y34448D01*
X375965Y33792D01*
X375702Y33333D01*
X375374Y32939D01*
X374980Y32677D01*
X374456Y32480D01*
X373143D01*
G01X377670Y36417D02*
Y33595D01*
X377933Y33005D01*
X378458Y32611D01*
X379114Y32480D01*
X379770Y32611D01*
X380295Y33005D01*
X380558Y33595D01*
Y36417D01*
G01X385085Y36089D02*
X384692Y36286D01*
X384232Y36417D01*
X383707D01*
X383117Y36220D01*
X382657Y35892D01*
X382330Y35498D01*
X382067Y34842D01*
X382001Y34252D01*
X382133Y33661D01*
X382330Y33267D01*
X382723Y32874D01*
X383182Y32611D01*
X383642Y32480D01*
X384101D01*
X384560Y32611D01*
X384954Y32808D01*
X385282Y33070D01*
G01X388169Y36417D02*
Y32480D01*
G01X386660Y36417D02*
X389678D01*
G01X392697Y32480D02*
X392172Y32546D01*
X391713Y32808D01*
X391319Y33202D01*
X391056Y33661D01*
X390925Y34186D01*
Y34711D01*
X391056Y35236D01*
X391319Y35695D01*
X391713Y36089D01*
X392172Y36351D01*
X392697Y36417D01*
X393222Y36351D01*
X393681Y36089D01*
X394075Y35695D01*
X394337Y35236D01*
X394469Y34711D01*
Y34186D01*
X394337Y33661D01*
X394075Y33202D01*
X393681Y32808D01*
X393222Y32546D01*
X392697Y32480D01*
G01X395912D02*
Y36417D01*
X397552D01*
X398078Y36220D01*
X398406Y35957D01*
X398537Y35433D01*
X398406Y34908D01*
X398012Y34580D01*
X397552Y34383D01*
X395912D01*
G01X397552D02*
X398537Y32480D01*
G01X323340Y136118D02*
X326227Y139005D01*
G01X324783Y139530D02*
Y135593D01*
G01X326227Y136118D02*
X323340Y139005D01*
G01X322815Y137561D02*
X326752D01*
G01X336922Y136249D02*
Y140186D01*
X338235D01*
X338760Y139989D01*
X339154Y139726D01*
X339481Y139333D01*
X339744Y138873D01*
X339810Y138217D01*
X339744Y137561D01*
X339481Y137102D01*
X339154Y136708D01*
X338760Y136446D01*
X338235Y136249D01*
X336922D01*
G01X342106Y140186D02*
X343681D01*
G01X342894D02*
Y136249D01*
G01X342106D02*
X343681D01*
G01X348733D02*
X346109D01*
Y140186D01*
X348733D01*
G01X347684Y138283D02*
X346109D01*
G01X350637Y140186D02*
Y136249D01*
X353261D01*
G01X357789D02*
X355164D01*
Y140186D01*
X357789D01*
G01X356739Y138283D02*
X355164D01*
G01X362448Y139858D02*
X362054Y140055D01*
X361594Y140186D01*
X361070D01*
X360479Y139989D01*
X360020Y139661D01*
X359692Y139267D01*
X359429Y138611D01*
X359363Y138020D01*
X359495Y137430D01*
X359692Y137036D01*
X360085Y136643D01*
X360544Y136380D01*
X361004Y136249D01*
X361463D01*
X361922Y136380D01*
X362316Y136577D01*
X362644Y136839D01*
G01X365531Y140186D02*
Y136249D01*
G01X364022Y140186D02*
X367041D01*
G01X368747Y136249D02*
Y140186D01*
X370387D01*
X370912Y139989D01*
X371240Y139726D01*
X371371Y139202D01*
X371240Y138677D01*
X370846Y138348D01*
X370387Y138152D01*
X368747D01*
G01X370387D02*
X371371Y136249D01*
G01X373799Y140186D02*
X375374D01*
G01X374587D02*
Y136249D01*
G01X373799D02*
X375374D01*
G01X380558Y139858D02*
X380164Y140055D01*
X379705Y140186D01*
X379180D01*
X378589Y139989D01*
X378130Y139661D01*
X377802Y139267D01*
X377539Y138611D01*
X377474Y138020D01*
X377605Y137430D01*
X377802Y137036D01*
X378196Y136643D01*
X378655Y136380D01*
X379114Y136249D01*
X379574D01*
X380033Y136380D01*
X380426Y136577D01*
X380755Y136839D01*
G01X323340Y238217D02*
X326227Y241104D01*
G01X324783Y241629D02*
Y237692D01*
G01X326227Y238217D02*
X323340Y241104D01*
G01X322815Y239660D02*
X326752D01*
G01X336988Y238873D02*
X337513Y238545D01*
X338104Y238348D01*
X338629D01*
X339154Y238545D01*
X339547Y238873D01*
X339744Y239332D01*
X339613Y239791D01*
X339285Y240185D01*
X338694Y240448D01*
X337907Y240579D01*
X337448Y240841D01*
X337251Y241301D01*
X337382Y241760D01*
X337710Y242088D01*
X338169Y242285D01*
X338629D01*
X339088Y242154D01*
X339481Y241826D01*
G01X341450Y242285D02*
Y239463D01*
X341713Y238873D01*
X342237Y238479D01*
X342894Y238348D01*
X343550Y238479D01*
X344075Y238873D01*
X344337Y239463D01*
Y242285D01*
G01X346109Y238348D02*
Y242285D01*
X347749D01*
X348274Y242088D01*
X348602Y241826D01*
X348733Y241301D01*
X348602Y240776D01*
X348209Y240448D01*
X347749Y240251D01*
X346109D01*
G01X347749D02*
X348733Y238348D01*
G01X350702D02*
Y242285D01*
X353196D01*
G01X352277Y240382D02*
X350702D01*
G01X354836Y238348D02*
X356476Y242285D01*
X358117Y238348D01*
G01X357526Y239726D02*
X355426D01*
G01X362448Y241957D02*
X362054Y242154D01*
X361594Y242285D01*
X361070D01*
X360479Y242088D01*
X360020Y241760D01*
X359692Y241367D01*
X359429Y240710D01*
X359363Y240120D01*
X359495Y239529D01*
X359692Y239135D01*
X360085Y238742D01*
X360544Y238479D01*
X361004Y238348D01*
X361463D01*
X361922Y238479D01*
X362316Y238676D01*
X362644Y238939D01*
G01X366844Y238348D02*
X364219D01*
Y242285D01*
X366844D01*
G01X365794Y240382D02*
X364219D01*
G01X314416Y235724D02*
Y231787D01*
X317041D01*
G01X320256D02*
Y235724D01*
X319469Y234936D01*
G01Y231787D02*
X321043D01*
G01X329311Y235724D02*
Y231787D01*
G01X327802Y235724D02*
X330820D01*
G01X333839Y231787D02*
X333313Y231852D01*
X332854Y232115D01*
X332461Y232508D01*
X332198Y232968D01*
X332067Y233493D01*
Y234018D01*
X332198Y234543D01*
X332461Y235002D01*
X332854Y235396D01*
X333313Y235658D01*
X333839Y235724D01*
X334363Y235658D01*
X334823Y235396D01*
X335217Y235002D01*
X335479Y234543D01*
X335610Y234018D01*
Y233493D01*
X335479Y232968D01*
X335217Y232508D01*
X334823Y232115D01*
X334363Y231852D01*
X333839Y231787D01*
G01X337054D02*
Y235724D01*
X338629D01*
X339154Y235527D01*
X339547Y235067D01*
X339678Y234543D01*
X339547Y234018D01*
X339219Y233624D01*
X338629Y233427D01*
X337054D01*
G01X348865Y235396D02*
X348471Y235593D01*
X348012Y235724D01*
X347487D01*
X346896Y235527D01*
X346437Y235199D01*
X346109Y234805D01*
X345846Y234149D01*
X345781Y233558D01*
X345912Y232968D01*
X346109Y232574D01*
X346503Y232180D01*
X346962Y231918D01*
X347421Y231787D01*
X347881D01*
X348340Y231918D01*
X348733Y232115D01*
X349062Y232377D01*
G01X351949Y231787D02*
X351424Y231852D01*
X350965Y232115D01*
X350571Y232508D01*
X350308Y232968D01*
X350177Y233493D01*
Y234018D01*
X350308Y234543D01*
X350571Y235002D01*
X350965Y235396D01*
X351424Y235658D01*
X351949Y235724D01*
X352474Y235658D01*
X352933Y235396D01*
X353327Y235002D01*
X353589Y234543D01*
X353720Y234018D01*
Y233493D01*
X353589Y232968D01*
X353327Y232508D01*
X352933Y232115D01*
X352474Y231852D01*
X351949Y231787D01*
G01X354967D02*
Y235724D01*
X357985Y231787D01*
Y235724D01*
G01X359560Y231787D02*
Y235724D01*
X360873D01*
X361398Y235527D01*
X361791Y235264D01*
X362119Y234870D01*
X362382Y234411D01*
X362448Y233755D01*
X362382Y233099D01*
X362119Y232640D01*
X361791Y232246D01*
X361398Y231983D01*
X360873Y231787D01*
X359560D01*
G01X364088Y235724D02*
Y232902D01*
X364350Y232311D01*
X364875Y231918D01*
X365531Y231787D01*
X366188Y231918D01*
X366713Y232311D01*
X366975Y232902D01*
Y235724D01*
G01X371503Y235396D02*
X371109Y235593D01*
X370650Y235724D01*
X370125D01*
X369534Y235527D01*
X369075Y235199D01*
X368747Y234805D01*
X368484Y234149D01*
X368419Y233558D01*
X368550Y232968D01*
X368747Y232574D01*
X369141Y232180D01*
X369600Y231918D01*
X370059Y231787D01*
X370519D01*
X370978Y231918D01*
X371371Y232115D01*
X371700Y232377D01*
G01X374587Y235724D02*
Y231787D01*
G01X373078Y235724D02*
X376096D01*
G01X379114Y231787D02*
X378589Y231852D01*
X378130Y232115D01*
X377736Y232508D01*
X377474Y232968D01*
X377343Y233493D01*
Y234018D01*
X377474Y234543D01*
X377736Y235002D01*
X378130Y235396D01*
X378589Y235658D01*
X379114Y235724D01*
X379639Y235658D01*
X380098Y235396D01*
X380492Y235002D01*
X380755Y234543D01*
X380886Y234018D01*
Y233493D01*
X380755Y232968D01*
X380492Y232508D01*
X380098Y232115D01*
X379639Y231852D01*
X379114Y231787D01*
G01X382330D02*
Y235724D01*
X383970D01*
X384495Y235527D01*
X384823Y235264D01*
X384954Y234739D01*
X384823Y234215D01*
X384429Y233886D01*
X383970Y233689D01*
X382330D01*
G01X383970D02*
X384954Y231787D01*
G54D12*
G01X-42520Y-109646D02*
Y-9055D01*
X453480D01*
Y-109646D01*
X-42520D01*
G01X-31515Y-78396D02*
Y-65896D01*
X-25624D01*
G01X-27795Y-71937D02*
X-31515D01*
G01X-18030Y-65896D02*
X-14310D01*
G01X-16170D02*
Y-78396D01*
G01X-18030D02*
X-14310D01*
G01X-2840Y-72146D02*
X261D01*
Y-75896D01*
X-670Y-77146D01*
X-1755Y-77979D01*
X-3305Y-78396D01*
X-4855Y-77979D01*
X-5940Y-77146D01*
X-6870Y-75896D01*
X-7490Y-74437D01*
X-7800Y-72771D01*
Y-71312D01*
X-7490Y-70063D01*
X-6870Y-68604D01*
X-5940Y-67354D01*
X-5010Y-66521D01*
X-3770Y-65896D01*
X-2685D01*
X-1445Y-66312D01*
X-515Y-67146D01*
G01X5220Y-65896D02*
Y-74854D01*
X5840Y-76730D01*
X7080Y-77979D01*
X8630Y-78396D01*
X10180Y-77979D01*
X11420Y-76730D01*
X12040Y-74854D01*
Y-65896D01*
G01X17930Y-78396D02*
Y-65896D01*
X21805D01*
X23045Y-66521D01*
X23820Y-67354D01*
X24130Y-69021D01*
X23820Y-70687D01*
X22890Y-71729D01*
X21805Y-72354D01*
X17930D01*
G01X21805D02*
X24130Y-78396D01*
G01X36530D02*
X30330D01*
Y-65896D01*
X36530D01*
G01X34050Y-71937D02*
X30330D01*
G01X-42520Y-84646D02*
X453480D01*
G01X-42520Y-34646D02*
X453480D01*
G01X-42520Y-59646D02*
X453480D01*
G01X0Y0D02*
Y157480D01*
X157480D01*
Y0D01*
X0D01*
G01Y167323D02*
Y177953D01*
G01X60484Y168110D02*
X0D01*
G01X15748Y170571D02*
X0Y168110D01*
X15748Y165650D01*
Y170571D01*
G01X47380Y-59646D02*
Y-109646D01*
G01X47070Y-27805D02*
Y-15305D01*
X50170D01*
X51410Y-15930D01*
X52340Y-16763D01*
X53115Y-18013D01*
X53735Y-19472D01*
X53890Y-21555D01*
X53735Y-23639D01*
X53115Y-25097D01*
X52340Y-26347D01*
X51410Y-27180D01*
X50170Y-27805D01*
X47070D01*
G01X59780D02*
Y-15305D01*
X63655D01*
X64895Y-15930D01*
X65670Y-16763D01*
X65980Y-18430D01*
X65670Y-20097D01*
X64740Y-21138D01*
X63655Y-21764D01*
X59780D01*
G01X63655D02*
X65980Y-27805D01*
G01X73420Y-15305D02*
X77140D01*
G01X75280D02*
Y-27805D01*
G01X73420D02*
X77140D01*
G01X84580Y-15305D02*
Y-27805D01*
X90780D01*
G01X96980Y-15305D02*
Y-27805D01*
X103180D01*
G01X128290Y-16347D02*
X127360Y-15722D01*
X126276Y-15305D01*
X125035D01*
X123640Y-15930D01*
X122556Y-16972D01*
X121780Y-18222D01*
X121160Y-20305D01*
X121005Y-22180D01*
X121315Y-24055D01*
X121780Y-25305D01*
X122710Y-26556D01*
X123795Y-27389D01*
X124880Y-27805D01*
X125965D01*
X127050Y-27389D01*
X127980Y-26764D01*
X128756Y-25931D01*
G01X134025Y-27805D02*
Y-15305D01*
G01X140535D02*
Y-27805D01*
G01Y-21555D02*
X134025D01*
G01X145805Y-27805D02*
X149680Y-15305D01*
X153556Y-27805D01*
G01X152160Y-23430D02*
X147200D01*
G01X158980Y-27805D02*
Y-15305D01*
X162855D01*
X164095Y-15930D01*
X164870Y-16763D01*
X165180Y-18430D01*
X164870Y-20097D01*
X163940Y-21138D01*
X162855Y-21764D01*
X158980D01*
G01X162855D02*
X165180Y-27805D01*
G01X174480Y-15305D02*
Y-27805D01*
G01X170915Y-15305D02*
X178045D01*
G01X186880Y-28222D02*
X186570Y-28013D01*
Y-27597D01*
X186880Y-27389D01*
X187191Y-27597D01*
Y-28013D01*
X186880Y-28222D01*
G01Y-22597D02*
X186570Y-22389D01*
Y-21972D01*
X186880Y-21764D01*
X187191Y-21972D01*
Y-22389D01*
X186880Y-22597D01*
G01X211680Y-15305D02*
Y-27805D01*
G01X208115Y-15305D02*
X215245D01*
G01X224080Y-27805D02*
X222840Y-27597D01*
X221756Y-26764D01*
X220825Y-25513D01*
X220205Y-24055D01*
X219895Y-22389D01*
Y-20722D01*
X220205Y-19055D01*
X220825Y-17597D01*
X221756Y-16347D01*
X222840Y-15513D01*
X224080Y-15305D01*
X225320Y-15513D01*
X226405Y-16347D01*
X227335Y-17597D01*
X227956Y-19055D01*
X228265Y-20722D01*
Y-22389D01*
X227956Y-24055D01*
X227335Y-25513D01*
X226405Y-26764D01*
X225320Y-27597D01*
X224080Y-27805D01*
G01X233380D02*
Y-15305D01*
X237100D01*
X238340Y-15930D01*
X239270Y-17389D01*
X239580Y-19055D01*
X239270Y-20722D01*
X238495Y-21972D01*
X237100Y-22597D01*
X233380D01*
G01X261280Y-15305D02*
Y-27805D01*
G01X259110Y-19472D02*
X263450D01*
G01X273680Y-27805D02*
X272750Y-27597D01*
X271820Y-26764D01*
X271200Y-25305D01*
X270890Y-23639D01*
X271200Y-21972D01*
X271820Y-20513D01*
X272750Y-19680D01*
X273680Y-19472D01*
X274610Y-19680D01*
X275540Y-20513D01*
X276160Y-21972D01*
X276315Y-23639D01*
X276160Y-25305D01*
X275540Y-26764D01*
X274610Y-27597D01*
X273680Y-27805D01*
G01X299720Y-21138D02*
X300340Y-20513D01*
X300805Y-19472D01*
X301115Y-18013D01*
X300805Y-16763D01*
X300185Y-15930D01*
X299100Y-15305D01*
X294915D01*
Y-27805D01*
X300030D01*
X301115Y-26972D01*
X301735Y-25722D01*
X302045Y-24263D01*
X301735Y-22806D01*
X300805Y-21555D01*
X299720Y-21138D01*
X294915D01*
G01X310880Y-27805D02*
X309640Y-27597D01*
X308556Y-26764D01*
X307625Y-25513D01*
X307005Y-24055D01*
X306695Y-22389D01*
Y-20722D01*
X307005Y-19055D01*
X307625Y-17597D01*
X308556Y-16347D01*
X309640Y-15513D01*
X310880Y-15305D01*
X312120Y-15513D01*
X313205Y-16347D01*
X314135Y-17597D01*
X314756Y-19055D01*
X315065Y-20722D01*
Y-22389D01*
X314756Y-24055D01*
X314135Y-25513D01*
X313205Y-26764D01*
X312120Y-27597D01*
X310880Y-27805D01*
G01X323280Y-15305D02*
Y-27805D01*
G01X319715Y-15305D02*
X326845D01*
G01X335680D02*
Y-27805D01*
G01X332115Y-15305D02*
X339245D01*
G01X348080Y-27805D02*
X346840Y-27597D01*
X345756Y-26764D01*
X344825Y-25513D01*
X344205Y-24055D01*
X343895Y-22389D01*
Y-20722D01*
X344205Y-19055D01*
X344825Y-17597D01*
X345756Y-16347D01*
X346840Y-15513D01*
X348080Y-15305D01*
X349320Y-15513D01*
X350405Y-16347D01*
X351335Y-17597D01*
X351956Y-19055D01*
X352265Y-20722D01*
Y-22389D01*
X351956Y-24055D01*
X351335Y-25513D01*
X350405Y-26764D01*
X349320Y-27597D01*
X348080Y-27805D01*
G01X356450D02*
Y-15305D01*
X360480Y-25722D01*
X364511Y-15305D01*
Y-27805D01*
G01X34205Y-53396D02*
X38080Y-40896D01*
X41956Y-53396D01*
G01X40560Y-49021D02*
X35600D01*
G01X47380Y-40896D02*
Y-53396D01*
X53580D01*
G01X59780Y-40896D02*
Y-53396D01*
X65980D01*
G01X84270Y-40896D02*
Y-49854D01*
X84890Y-51730D01*
X86130Y-52979D01*
X87680Y-53396D01*
X89230Y-52979D01*
X90470Y-51730D01*
X91090Y-49854D01*
Y-40896D01*
G01X96515Y-53396D02*
Y-40896D01*
X103645Y-53396D01*
Y-40896D01*
G01X110620D02*
X114340D01*
G01X112480D02*
Y-53396D01*
G01X110620D02*
X114340D01*
G01X124880Y-40896D02*
Y-53396D01*
G01X121315Y-40896D02*
X128445D01*
G01X134025Y-51730D02*
X135265Y-52771D01*
X136660Y-53396D01*
X137900D01*
X139140Y-52771D01*
X140070Y-51730D01*
X140535Y-50270D01*
X140226Y-48813D01*
X139450Y-47563D01*
X138055Y-46729D01*
X136195Y-46312D01*
X135110Y-45479D01*
X134645Y-44021D01*
X134956Y-42562D01*
X135730Y-41521D01*
X136815Y-40896D01*
X137900D01*
X138985Y-41312D01*
X139915Y-42354D01*
G01X158205Y-53396D02*
X162080Y-40896D01*
X165956Y-53396D01*
G01X164560Y-49021D02*
X159600D01*
G01X171380Y-53396D02*
Y-40896D01*
X175255D01*
X176495Y-41521D01*
X177270Y-42354D01*
X177580Y-44021D01*
X177270Y-45687D01*
X176340Y-46729D01*
X175255Y-47354D01*
X171380D01*
G01X175255D02*
X177580Y-53396D01*
G01X189980D02*
X183780D01*
Y-40896D01*
X189980D01*
G01X187500Y-46937D02*
X183780D01*
G01X209820Y-40896D02*
X213540D01*
G01X211680D02*
Y-53396D01*
G01X209820D02*
X213540D01*
G01X220515D02*
Y-40896D01*
X227645Y-53396D01*
Y-40896D01*
G01X244850Y-53396D02*
Y-40896D01*
X248880Y-51312D01*
X252911Y-40896D01*
Y-53396D01*
G01X259420Y-40896D02*
X263140D01*
G01X261280D02*
Y-53396D01*
G01X259420D02*
X263140D01*
G01X270580Y-40896D02*
Y-53396D01*
X276780D01*
G01X282980Y-40896D02*
Y-53396D01*
X289180D01*
G01X296620Y-40896D02*
X300340D01*
G01X298480D02*
Y-53396D01*
G01X296620D02*
X300340D01*
G01X306850D02*
Y-40896D01*
X310880Y-51312D01*
X314911Y-40896D01*
Y-53396D01*
G01X326380D02*
X320180D01*
Y-40896D01*
X326380D01*
G01X323900Y-46937D02*
X320180D01*
G01X335680Y-40896D02*
Y-53396D01*
G01X332115Y-40896D02*
X339245D01*
G01X351180Y-53396D02*
X344980D01*
Y-40896D01*
X351180D01*
G01X348700Y-46937D02*
X344980D01*
G01X357380Y-53396D02*
Y-40896D01*
X361255D01*
X362495Y-41521D01*
X363270Y-42354D01*
X363580Y-44021D01*
X363270Y-45687D01*
X362340Y-46729D01*
X361255Y-47354D01*
X357380D01*
G01X361255D02*
X363580Y-53396D01*
G01X369625Y-51730D02*
X370865Y-52771D01*
X372260Y-53396D01*
X373500D01*
X374740Y-52771D01*
X375670Y-51730D01*
X376135Y-50270D01*
X375826Y-48813D01*
X375050Y-47563D01*
X373655Y-46729D01*
X371795Y-46312D01*
X370710Y-45479D01*
X370245Y-44021D01*
X370556Y-42562D01*
X371330Y-41521D01*
X372415Y-40896D01*
X373500D01*
X374585Y-41312D01*
X375515Y-42354D01*
G01X70785Y-78396D02*
Y-65896D01*
X76676D01*
G01X74505Y-71937D02*
X70785D01*
G01X84270Y-65896D02*
X87990D01*
G01X86130D02*
Y-78396D01*
G01X84270D02*
X87990D01*
G01X94965D02*
Y-65896D01*
X102095Y-78396D01*
Y-65896D01*
G01X109070D02*
X112790D01*
G01X110930D02*
Y-78396D01*
G01X109070D02*
X112790D01*
G01X120075Y-76730D02*
X121315Y-77771D01*
X122710Y-78396D01*
X123950D01*
X125190Y-77771D01*
X126120Y-76730D01*
X126585Y-75270D01*
X126276Y-73813D01*
X125500Y-72563D01*
X124105Y-71729D01*
X122245Y-71312D01*
X121160Y-70479D01*
X120695Y-69021D01*
X121006Y-67562D01*
X121780Y-66521D01*
X122865Y-65896D01*
X123950D01*
X125035Y-66312D01*
X125965Y-67354D01*
G01X132475Y-78396D02*
Y-65896D01*
G01X138985D02*
Y-78396D01*
G01Y-72146D02*
X132475D01*
G01X151230Y-78396D02*
X145030D01*
Y-65896D01*
X151230D01*
G01X148750Y-71937D02*
X145030D01*
G01X157120Y-78396D02*
Y-65896D01*
X160220D01*
X161460Y-66521D01*
X162390Y-67354D01*
X163165Y-68604D01*
X163785Y-70063D01*
X163940Y-72146D01*
X163785Y-74229D01*
X163165Y-75687D01*
X162390Y-76938D01*
X161460Y-77771D01*
X160220Y-78396D01*
X157120D01*
G01X168280Y-82562D02*
X177580D01*
G01X182075Y-76730D02*
X183315Y-77771D01*
X184710Y-78396D01*
X185950D01*
X187190Y-77771D01*
X188120Y-76730D01*
X188585Y-75270D01*
X188276Y-73813D01*
X187500Y-72563D01*
X186105Y-71729D01*
X184245Y-71312D01*
X183160Y-70479D01*
X182695Y-69021D01*
X183006Y-67562D01*
X183780Y-66521D01*
X184865Y-65896D01*
X185950D01*
X187035Y-66312D01*
X187965Y-67354D01*
G01X195870Y-65896D02*
X199590D01*
G01X197730D02*
Y-78396D01*
G01X195870D02*
X199590D01*
G01X207185Y-65896D02*
X213076D01*
X207185Y-78396D01*
X213076D01*
G01X225630D02*
X219430D01*
Y-65896D01*
X225630D01*
G01X223150Y-71937D02*
X219430D01*
G01X76369Y161860D02*
Y174360D01*
X70633Y165402D01*
X78384D01*
G01X86909Y174360D02*
X85669Y173944D01*
X84739Y172902D01*
X84119Y171652D01*
X83654Y169985D01*
X83499Y168110D01*
X83654Y166235D01*
X84119Y164569D01*
X84739Y163318D01*
X85669Y162277D01*
X86909Y161860D01*
X88148Y162277D01*
X89079Y163318D01*
X89699Y164569D01*
X90164Y166235D01*
X90319Y168110D01*
X90164Y169985D01*
X89699Y171652D01*
X89079Y172902D01*
X88148Y173944D01*
X86909Y174360D01*
G01X100933Y168110D02*
X157480D01*
G01X135730Y-90896D02*
X134490Y-91312D01*
X133560Y-92354D01*
X132940Y-93604D01*
X132475Y-95271D01*
X132320Y-97146D01*
X132475Y-99021D01*
X132940Y-100687D01*
X133560Y-101938D01*
X134490Y-102979D01*
X135730Y-103396D01*
X136970Y-102979D01*
X137900Y-101938D01*
X138520Y-100687D01*
X138985Y-99021D01*
X139140Y-97146D01*
X138985Y-95271D01*
X138520Y-93604D01*
X137900Y-92354D01*
X136970Y-91312D01*
X135730Y-90896D01*
G01X148130Y-103812D02*
X147820Y-103604D01*
Y-103187D01*
X148130Y-102979D01*
X148441Y-103187D01*
Y-103604D01*
X148130Y-103812D01*
G01X162390Y-103396D02*
Y-90896D01*
X156655Y-99854D01*
X164406D01*
G01X141732Y165650D02*
X157480Y168110D01*
X141732Y170571D01*
Y165650D01*
G01X167323Y0D02*
X177165D01*
G01X167323Y65084D02*
Y0D01*
G01X164862Y15748D02*
X167323Y0D01*
X169783Y15748D01*
X164862D01*
G01X162983Y74459D02*
Y86959D01*
X157248Y78000D01*
X164998D01*
G01X173523Y86959D02*
X172283Y86542D01*
X171353Y85500D01*
X170733Y84250D01*
X170268Y82583D01*
X170113Y80709D01*
X170268Y78833D01*
X170733Y77167D01*
X171353Y75917D01*
X172283Y74875D01*
X173523Y74459D01*
X174763Y74875D01*
X175693Y75917D01*
X176313Y77167D01*
X176778Y78833D01*
X176933Y80709D01*
X176778Y82583D01*
X176313Y84250D01*
X175693Y85500D01*
X174763Y86542D01*
X173523Y86959D01*
G01X167323Y96333D02*
Y157480D01*
G01X169783Y141732D02*
X167323Y157480D01*
X164862Y141732D01*
X169783D01*
G01X157480Y167323D02*
Y177953D01*
G01X167323Y157480D02*
X177165D01*
G01X248880Y-59646D02*
Y-109646D01*
G01X249232Y37729D02*
Y234769D01*
X309232D01*
Y37729D01*
X249232D01*
G01X278330Y-103396D02*
Y-90896D01*
X282050D01*
X283290Y-91521D01*
X284220Y-92979D01*
X284530Y-94646D01*
X284220Y-96312D01*
X283445Y-97563D01*
X282050Y-98188D01*
X278330D01*
G01X290730Y-90896D02*
Y-103396D01*
X296930D01*
G01X302355D02*
X306230Y-90896D01*
X310106Y-103396D01*
G01X308710Y-99021D02*
X303750D01*
G01X318630Y-90896D02*
Y-103396D01*
G01X315065Y-90896D02*
X322195D01*
G01X334130Y-103396D02*
X327930D01*
Y-90896D01*
X334130D01*
G01X331650Y-96937D02*
X327930D01*
G01X340020Y-103396D02*
Y-90896D01*
X343120D01*
X344360Y-91521D01*
X345290Y-92354D01*
X346065Y-93604D01*
X346685Y-95063D01*
X346840Y-97146D01*
X346685Y-99229D01*
X346065Y-100687D01*
X345290Y-101938D01*
X344360Y-102771D01*
X343120Y-103396D01*
X340020D01*
G01X278330Y-78396D02*
Y-65896D01*
X282050D01*
X283290Y-66521D01*
X284220Y-67979D01*
X284530Y-69646D01*
X284220Y-71312D01*
X283445Y-72563D01*
X282050Y-73188D01*
X278330D01*
G01X290730Y-65896D02*
Y-78396D01*
X296930D01*
G01X302355D02*
X306230Y-65896D01*
X310106Y-78396D01*
G01X308710Y-74021D02*
X303750D01*
G01X318630Y-65896D02*
Y-78396D01*
G01X315065Y-65896D02*
X322195D01*
G01X334130Y-78396D02*
X327930D01*
Y-65896D01*
X334130D01*
G01X331650Y-71937D02*
X327930D01*
G01X340020Y-78396D02*
Y-65896D01*
X343120D01*
X344360Y-66521D01*
X345290Y-67354D01*
X346065Y-68604D01*
X346685Y-70063D01*
X346840Y-72146D01*
X346685Y-74229D01*
X346065Y-75687D01*
X345290Y-76938D01*
X344360Y-77771D01*
X343120Y-78396D01*
X340020D01*
G01X375980Y-59646D02*
Y-109646D01*
G01X408530Y-103396D02*
Y-90896D01*
X406670Y-93396D01*
G01Y-103396D02*
X410390D01*
G01X417985Y-92979D02*
X418915Y-91729D01*
X420000Y-91104D01*
X421241Y-90896D01*
X422790Y-91312D01*
X423876Y-92354D01*
X424185Y-93604D01*
X424030Y-94854D01*
X423410Y-95896D01*
X420310Y-97979D01*
X418915Y-99437D01*
X417985Y-101521D01*
X417675Y-103396D01*
X424185D01*
G01X402330Y-78396D02*
X401090Y-78187D01*
X400006Y-77354D01*
X399075Y-76104D01*
X398455Y-74646D01*
X398145Y-72979D01*
Y-71312D01*
X398455Y-69646D01*
X399075Y-68187D01*
X400006Y-66937D01*
X401090Y-66104D01*
X402330Y-65896D01*
X403570Y-66104D01*
X404655Y-66937D01*
X405585Y-68187D01*
X406206Y-69646D01*
X406515Y-71312D01*
Y-72979D01*
X406206Y-74646D01*
X405585Y-76104D01*
X404655Y-77354D01*
X403570Y-78187D01*
X402330Y-78396D01*
G01X403570Y-75062D02*
X405430Y-78396D01*
G01X414730Y-65896D02*
Y-78396D01*
G01X411165Y-65896D02*
X418295D01*
G01X427130Y-78396D02*
Y-72771D01*
X424030Y-65896D01*
G01X430230D02*
X427130Y-72771D01*
M02*
