G04 ================== begin FILE IDENTIFICATION RECORD ==================*
G04 Layout Name:  C:/USERS/ADMIN/DOCUMENTS/ETTI/TCAD/CEF/L1/allegro/ENACHE_PCB.brd*
G04 Film Name:    SSTOP*
G04 File Format:  Gerber RS274X*
G04 File Origin:  Cadence Allegro 17.2-S025*
G04 Origin Date:  Fri Dec 13 21:13:12 2024*
G04 *
G04 Layer:  REF DES/SILKSCREEN_TOP*
G04 Layer:  PACKAGE GEOMETRY/SILKSCREEN_TOP*
G04 Layer:  BOARD GEOMETRY/SILKSCREEN_TOP*
G04 *
G04 Offset:    (0.0000 0.0000)*
G04 Mirror:    No*
G04 Mode:      Positive*
G04 Rotation:  0*
G04 FullContactRelief:  No*
G04 UndefLineWidth:     0.3000*
G04 ================== end FILE IDENTIFICATION RECORD ====================*
%FSLAX25Y25*MOIN*%
%IR0*IPPOS*OFA0.00000B0.00000*MIA0B0*SFA1.00000B1.00000*%
%ADD10C,.005906*%
%ADD11C,.006*%
%ADD12C,.011811*%
G75*
%LPD*%
G75*
G54D10*
G01X22015Y11811D02*
X22343Y11417D01*
X22736Y11155D01*
X23196Y11024D01*
X23720Y11155D01*
X24114Y11417D01*
X24508Y11811D01*
X24639Y12336D01*
Y14961D01*
G01X26411Y11614D02*
X26804Y11286D01*
X27264Y11089D01*
X27854Y11024D01*
X28445Y11155D01*
X28904Y11417D01*
X29232Y11877D01*
X29298Y12402D01*
X29167Y12926D01*
X28839Y13255D01*
X28379Y13517D01*
X27920Y13583D01*
X27461Y13517D01*
X26870Y13255D01*
X27067Y14961D01*
X28839D01*
G01X9312Y31059D02*
X8919Y31256D01*
X8459Y31387D01*
X7934D01*
X7343Y31190D01*
X6884Y30862D01*
X6556Y30469D01*
X6294Y29812D01*
X6228Y29222D01*
X6359Y28631D01*
X6556Y28237D01*
X6950Y27844D01*
X7409Y27581D01*
X7869Y27450D01*
X8328D01*
X8787Y27581D01*
X9181Y27778D01*
X9509Y28041D01*
G01X12396Y27450D02*
Y31387D01*
X11609Y30600D01*
G01Y27450D02*
X13183D01*
G01X11778Y59055D02*
X12106Y58661D01*
X12500Y58399D01*
X12959Y58268D01*
X13484Y58399D01*
X13878Y58661D01*
X14272Y59055D01*
X14403Y59580D01*
Y62205D01*
G01X16371Y59908D02*
X16831Y60367D01*
X17224Y60630D01*
X17749Y60761D01*
X18209Y60630D01*
X18537Y60367D01*
X18799Y59974D01*
X18865Y59515D01*
X18799Y59121D01*
X18537Y58727D01*
X18143Y58399D01*
X17684Y58268D01*
X17159Y58399D01*
X16700Y58793D01*
X16437Y59383D01*
X16371Y60039D01*
X16503Y60892D01*
X16700Y61352D01*
X17028Y61811D01*
X17487Y62139D01*
X17946Y62205D01*
X18406Y62074D01*
X18733Y61745D01*
G01X30184Y63386D02*
Y67323D01*
X31824D01*
X32349Y67126D01*
X32677Y66863D01*
X32808Y66339D01*
X32677Y65814D01*
X32283Y65485D01*
X31824Y65289D01*
X30184D01*
G01X31824D02*
X32808Y63386D01*
G01X36024D02*
Y67323D01*
X35236Y66535D01*
G01Y63386D02*
X36811D01*
G01X7841Y106299D02*
X8169Y105906D01*
X8563Y105643D01*
X9022Y105512D01*
X9547Y105643D01*
X9941Y105906D01*
X10335Y106299D01*
X10466Y106824D01*
Y109449D01*
G01X13681Y105512D02*
Y109449D01*
X12894Y108661D01*
G01Y105512D02*
X14469D01*
G01X24115Y96505D02*
Y100442D01*
X25756D01*
X26281Y100245D01*
X26609Y99983D01*
X26740Y99458D01*
X26609Y98933D01*
X26215Y98605D01*
X25756Y98408D01*
X24115D01*
G01X25756D02*
X26740Y96505D01*
G01X28708Y99786D02*
X29102Y100180D01*
X29561Y100376D01*
X30086Y100442D01*
X30743Y100311D01*
X31202Y99983D01*
X31333Y99589D01*
X31267Y99195D01*
X31005Y98867D01*
X29693Y98211D01*
X29102Y97752D01*
X28708Y97096D01*
X28577Y96505D01*
X31333D01*
G01X33039Y97293D02*
X33433Y96833D01*
X33957Y96571D01*
X34548Y96505D01*
X35073Y96571D01*
X35598Y96899D01*
X35926Y97293D01*
X35992Y97686D01*
X35861Y98145D01*
X35401Y98474D01*
X34942Y98605D01*
X34352D01*
G01X34942D02*
X35336Y98802D01*
X35664Y99130D01*
X35795Y99524D01*
X35664Y99917D01*
X35336Y100245D01*
X34745Y100442D01*
X34155Y100376D01*
X33564Y100114D01*
G01X43407Y25639D02*
Y29576D01*
X45047D01*
X45572Y29379D01*
X45900Y29117D01*
X46031Y28592D01*
X45900Y28067D01*
X45506Y27739D01*
X45047Y27542D01*
X43407D01*
G01X45047D02*
X46031Y25639D01*
G01X48000Y28920D02*
X48393Y29313D01*
X48853Y29510D01*
X49378Y29576D01*
X50034Y29445D01*
X50493Y29117D01*
X50624Y28723D01*
X50559Y28329D01*
X50296Y28001D01*
X48984Y27345D01*
X48393Y26886D01*
X48000Y26230D01*
X47869Y25639D01*
X50624D01*
G01X52527Y27279D02*
X52987Y27739D01*
X53380Y28001D01*
X53905Y28132D01*
X54365Y28001D01*
X54693Y27739D01*
X54955Y27345D01*
X55021Y26886D01*
X54955Y26492D01*
X54693Y26098D01*
X54299Y25770D01*
X53840Y25639D01*
X53315Y25770D01*
X52856Y26164D01*
X52593Y26754D01*
X52527Y27411D01*
X52659Y28263D01*
X52856Y28723D01*
X53183Y29182D01*
X53643Y29510D01*
X54102Y29576D01*
X54561Y29445D01*
X54889Y29117D01*
G01X42782Y63386D02*
Y67323D01*
X44422D01*
X44948Y67126D01*
X45276Y66863D01*
X45407Y66339D01*
X45276Y65814D01*
X44882Y65485D01*
X44422Y65289D01*
X42782D01*
G01X44422D02*
X45407Y63386D01*
G01X47375Y66667D02*
X47769Y67060D01*
X48228Y67257D01*
X48753Y67323D01*
X49409Y67192D01*
X49869Y66863D01*
X50000Y66470D01*
X49934Y66076D01*
X49672Y65748D01*
X48359Y65092D01*
X47769Y64633D01*
X47375Y63976D01*
X47244Y63386D01*
X50000D01*
G01X51706Y63976D02*
X52100Y63648D01*
X52559Y63452D01*
X53150Y63386D01*
X53740Y63517D01*
X54200Y63780D01*
X54528Y64239D01*
X54593Y64764D01*
X54462Y65289D01*
X54134Y65617D01*
X53674Y65879D01*
X53215Y65945D01*
X52756Y65879D01*
X52165Y65617D01*
X52362Y67323D01*
X54134D01*
G01X57480Y107480D02*
X56955Y107546D01*
X56496Y107808D01*
X56102Y108202D01*
X55840Y108661D01*
X55709Y109186D01*
Y109711D01*
X55840Y110236D01*
X56102Y110696D01*
X56496Y111089D01*
X56955Y111352D01*
X57480Y111417D01*
X58005Y111352D01*
X58465Y111089D01*
X58858Y110696D01*
X59121Y110236D01*
X59252Y109711D01*
Y109186D01*
X59121Y108661D01*
X58858Y108202D01*
X58465Y107808D01*
X58005Y107546D01*
X57480Y107480D01*
G01X58005Y108530D02*
X58793Y107480D01*
G01X61877D02*
X62008Y108333D01*
X62205Y109055D01*
X62467Y109711D01*
X62795Y110433D01*
X63320Y111417D01*
X60696D01*
G01X31070Y137795D02*
X31398Y137402D01*
X31791Y137139D01*
X32251Y137008D01*
X32776Y137139D01*
X33169Y137402D01*
X33563Y137795D01*
X33694Y138320D01*
Y140945D01*
G01X35466Y137795D02*
X35859Y137336D01*
X36384Y137074D01*
X36975Y137008D01*
X37500Y137074D01*
X38025Y137402D01*
X38353Y137795D01*
X38419Y138189D01*
X38287Y138648D01*
X37828Y138976D01*
X37369Y139107D01*
X36778D01*
G01X37369D02*
X37763Y139304D01*
X38091Y139632D01*
X38222Y140026D01*
X38091Y140420D01*
X37763Y140748D01*
X37172Y140945D01*
X36581Y140879D01*
X35991Y140617D01*
G01X51674Y135088D02*
Y139025D01*
X53315D01*
X53840Y138828D01*
X54168Y138565D01*
X54299Y138041D01*
X54168Y137516D01*
X53774Y137187D01*
X53315Y136991D01*
X51674D01*
G01X53315D02*
X54299Y135088D01*
G01X56267Y138369D02*
X56661Y138762D01*
X57120Y138959D01*
X57645Y139025D01*
X58302Y138894D01*
X58761Y138565D01*
X58892Y138172D01*
X58826Y137778D01*
X58564Y137450D01*
X57252Y136794D01*
X56661Y136335D01*
X56267Y135678D01*
X56136Y135088D01*
X58892D01*
G01X60795Y138369D02*
X61189Y138762D01*
X61648Y138959D01*
X62173Y139025D01*
X62829Y138894D01*
X63289Y138565D01*
X63420Y138172D01*
X63354Y137778D01*
X63092Y137450D01*
X61779Y136794D01*
X61189Y136335D01*
X60795Y135678D01*
X60664Y135088D01*
X63420D01*
G01X89731Y7480D02*
X90059Y7087D01*
X90453Y6824D01*
X90912Y6693D01*
X91437Y6824D01*
X91831Y7087D01*
X92224Y7480D01*
X92356Y8005D01*
Y10630D01*
G01X96358Y6693D02*
Y10630D01*
X93930Y7808D01*
X97211D01*
G01X83564Y19733D02*
Y23670D01*
X85204D01*
X85730Y23474D01*
X86057Y23211D01*
X86189Y22686D01*
X86057Y22161D01*
X85664Y21833D01*
X85204Y21636D01*
X83564D01*
G01X85204D02*
X86189Y19733D01*
G01X88157Y23014D02*
X88551Y23408D01*
X89010Y23605D01*
X89535Y23670D01*
X90191Y23539D01*
X90651Y23211D01*
X90782Y22817D01*
X90716Y22424D01*
X90454Y22096D01*
X89141Y21439D01*
X88551Y20980D01*
X88157Y20324D01*
X88026Y19733D01*
X90782D01*
G01X93800D02*
X93931Y20587D01*
X94128Y21308D01*
X94391Y21965D01*
X94719Y22686D01*
X95244Y23670D01*
X92619D01*
G01X76247Y41339D02*
Y45276D01*
X77887D01*
X78412Y45079D01*
X78740Y44816D01*
X78871Y44291D01*
X78740Y43767D01*
X78346Y43438D01*
X77887Y43241D01*
X76247D01*
G01X77887D02*
X78871Y41339D01*
G01X80840Y44619D02*
X81233Y45013D01*
X81693Y45210D01*
X82218Y45276D01*
X82874Y45144D01*
X83333Y44816D01*
X83465Y44422D01*
X83399Y44029D01*
X83137Y43701D01*
X81824Y43044D01*
X81233Y42585D01*
X80840Y41929D01*
X80709Y41339D01*
X83465D01*
G01X85499Y41798D02*
X85958Y41470D01*
X86483Y41339D01*
X87008Y41470D01*
X87467Y41863D01*
X87795Y42454D01*
X87926Y43044D01*
Y43767D01*
X87795Y44357D01*
X87467Y44882D01*
X87074Y45144D01*
X86614Y45276D01*
X86089Y45144D01*
X85696Y44882D01*
X85433Y44488D01*
X85302Y43963D01*
X85433Y43504D01*
X85761Y43044D01*
X86155Y42782D01*
X86614Y42717D01*
X87139Y42848D01*
X87533Y43176D01*
X87926Y43767D01*
G01X83958Y85481D02*
Y89419D01*
X85598D01*
X86123Y89222D01*
X86451Y88959D01*
X86582Y88434D01*
X86451Y87909D01*
X86057Y87581D01*
X85598Y87384D01*
X83958D01*
G01X85598D02*
X86582Y85481D01*
G01X88354Y86269D02*
X88748Y85809D01*
X89272Y85547D01*
X89863Y85481D01*
X90388Y85547D01*
X90913Y85875D01*
X91241Y86269D01*
X91307Y86663D01*
X91176Y87122D01*
X90716Y87450D01*
X90257Y87581D01*
X89667D01*
G01X90257D02*
X90651Y87778D01*
X90979Y88106D01*
X91110Y88500D01*
X90979Y88894D01*
X90651Y89222D01*
X90060Y89419D01*
X89470Y89353D01*
X88879Y89091D01*
G01X86220Y137402D02*
X85695Y137467D01*
X85236Y137730D01*
X84843Y138123D01*
X84580Y138583D01*
X84449Y139107D01*
Y139633D01*
X84580Y140157D01*
X84843Y140617D01*
X85236Y141011D01*
X85695Y141273D01*
X86220Y141339D01*
X86745Y141273D01*
X87205Y141011D01*
X87598Y140617D01*
X87861Y140157D01*
X87992Y139633D01*
Y139107D01*
X87861Y138583D01*
X87598Y138123D01*
X87205Y137730D01*
X86745Y137467D01*
X86220Y137402D01*
G01X86745Y138452D02*
X87533Y137402D01*
G01X90748D02*
X91207Y137467D01*
X91732Y137664D01*
X92060Y137992D01*
X92192Y138452D01*
X92060Y138911D01*
X91667Y139304D01*
X91076Y139501D01*
X90420D01*
X90026Y139633D01*
X89698Y139961D01*
X89567Y140420D01*
X89764Y140879D01*
X90223Y141207D01*
X90748Y141339D01*
X91273Y141207D01*
X91732Y140879D01*
X91929Y140420D01*
X91798Y139961D01*
X91470Y139633D01*
X91076Y139501D01*
X90420D01*
X89830Y139304D01*
X89436Y138911D01*
X89304Y138452D01*
X89436Y137992D01*
X89764Y137664D01*
X90289Y137467D01*
X90748Y137402D01*
G01X108530Y21654D02*
Y25591D01*
X110170D01*
X110696Y25394D01*
X111024Y25131D01*
X111155Y24606D01*
X111024Y24081D01*
X110630Y23753D01*
X110170Y23556D01*
X108530D01*
G01X110170D02*
X111155Y21654D01*
G01X113123Y24934D02*
X113517Y25328D01*
X113976Y25525D01*
X114501Y25591D01*
X115157Y25459D01*
X115617Y25131D01*
X115748Y24737D01*
X115682Y24344D01*
X115420Y24016D01*
X114107Y23359D01*
X113517Y22900D01*
X113123Y22244D01*
X112992Y21654D01*
X115748D01*
G01X118898D02*
X119357Y21719D01*
X119882Y21916D01*
X120210Y22244D01*
X120341Y22704D01*
X120210Y23163D01*
X119816Y23556D01*
X119226Y23753D01*
X118570D01*
X118176Y23885D01*
X117848Y24213D01*
X117717Y24672D01*
X117913Y25131D01*
X118372Y25459D01*
X118898Y25591D01*
X119422Y25459D01*
X119882Y25131D01*
X120079Y24672D01*
X119948Y24213D01*
X119619Y23885D01*
X119226Y23753D01*
X118570D01*
X117979Y23556D01*
X117585Y23163D01*
X117454Y22704D01*
X117585Y22244D01*
X117913Y21916D01*
X118438Y21719D01*
X118898Y21654D01*
G01X108530Y43307D02*
Y47244D01*
X110105D01*
X110630Y47047D01*
X111024Y46588D01*
X111155Y46063D01*
X111024Y45538D01*
X110696Y45144D01*
X110105Y44947D01*
X108530D01*
G01X114370Y43307D02*
Y47244D01*
X113583Y46457D01*
G01Y43307D02*
X115157D01*
G01X117454D02*
Y47244D01*
X118767D01*
X119291Y47047D01*
X119685Y46785D01*
X120013Y46391D01*
X120276Y45931D01*
X120341Y45276D01*
X120276Y44619D01*
X120013Y44160D01*
X119685Y43766D01*
X119291Y43504D01*
X118767Y43307D01*
X117454D01*
G01X124869Y46916D02*
X124475Y47113D01*
X124016Y47244D01*
X123491D01*
X122900Y47047D01*
X122441Y46719D01*
X122113Y46326D01*
X121850Y45669D01*
X121785Y45079D01*
X121916Y44488D01*
X122113Y44094D01*
X122507Y43701D01*
X122966Y43438D01*
X123425Y43307D01*
X123885D01*
X124344Y43438D01*
X124737Y43635D01*
X125066Y43898D01*
G01X129265Y43307D02*
X126641D01*
Y47244D01*
X129265D01*
G01X128215Y45341D02*
X126641D01*
G01X110170Y41470D02*
X110564Y41863D01*
X111024Y42060D01*
X111548Y42126D01*
X112205Y41995D01*
X112664Y41667D01*
X112795Y41273D01*
X112730Y40879D01*
X112467Y40551D01*
X111155Y39895D01*
X110564Y39436D01*
X110170Y38780D01*
X110039Y38189D01*
X112795D01*
G01X115945Y42126D02*
X115420Y41995D01*
X115026Y41667D01*
X114764Y41273D01*
X114567Y40748D01*
X114501Y40157D01*
X114567Y39567D01*
X114764Y39042D01*
X115026Y38648D01*
X115420Y38320D01*
X115945Y38189D01*
X116470Y38320D01*
X116863Y38648D01*
X117126Y39042D01*
X117323Y39567D01*
X117389Y40157D01*
X117323Y40748D01*
X117126Y41273D01*
X116863Y41667D01*
X116470Y41995D01*
X115945Y42126D01*
G01X119226Y41470D02*
X119619Y41863D01*
X120079Y42060D01*
X120604Y42126D01*
X121260Y41995D01*
X121719Y41667D01*
X121850Y41273D01*
X121785Y40879D01*
X121522Y40551D01*
X120210Y39895D01*
X119619Y39436D01*
X119226Y38780D01*
X119094Y38189D01*
X121850D01*
G01X125787D02*
Y42126D01*
X123359Y39304D01*
X126641D01*
G01X128674Y39501D02*
X130381D01*
G01X132808Y41470D02*
X133202Y41863D01*
X133661Y42060D01*
X134186Y42126D01*
X134843Y41995D01*
X135302Y41667D01*
X135433Y41273D01*
X135367Y40879D01*
X135105Y40551D01*
X133793Y39895D01*
X133202Y39436D01*
X132808Y38780D01*
X132677Y38189D01*
X135433D01*
G01X138583Y42126D02*
X138057Y41995D01*
X137664Y41667D01*
X137402Y41273D01*
X137205Y40748D01*
X137139Y40157D01*
X137205Y39567D01*
X137402Y39042D01*
X137664Y38648D01*
X138057Y38320D01*
X138583Y38189D01*
X139107Y38320D01*
X139501Y38648D01*
X139764Y39042D01*
X139961Y39567D01*
X140026Y40157D01*
X139961Y40748D01*
X139764Y41273D01*
X139501Y41667D01*
X139107Y41995D01*
X138583Y42126D01*
G01X141863Y41470D02*
X142257Y41863D01*
X142717Y42060D01*
X143241Y42126D01*
X143898Y41995D01*
X144357Y41667D01*
X144488Y41273D01*
X144422Y40879D01*
X144160Y40551D01*
X142848Y39895D01*
X142257Y39436D01*
X141863Y38780D01*
X141732Y38189D01*
X144488D01*
G01X146194Y38780D02*
X146588Y38452D01*
X147047Y38255D01*
X147638Y38189D01*
X148228Y38320D01*
X148688Y38583D01*
X149016Y39042D01*
X149081Y39567D01*
X148950Y40092D01*
X148622Y40420D01*
X148163Y40682D01*
X147704Y40748D01*
X147244Y40682D01*
X146654Y40420D01*
X146850Y42126D01*
X148622D01*
G01X122047Y61024D02*
Y57087D01*
G01X120538Y61024D02*
X123556D01*
G01X125591Y58858D02*
X127690D01*
X127493Y59318D01*
X127165Y59580D01*
X126706Y59711D01*
X126247Y59646D01*
X125853Y59449D01*
X125591Y58989D01*
X125459Y58596D01*
Y58202D01*
X125591Y57808D01*
X125919Y57415D01*
X126312Y57152D01*
X126772Y57087D01*
X127231Y57218D01*
X127690Y57611D01*
G01X131102Y57087D02*
X130709Y57152D01*
X130315Y57415D01*
X130052Y57874D01*
X129921Y58399D01*
X130052Y58924D01*
X130315Y59383D01*
X130709Y59646D01*
X131102Y59711D01*
X131496Y59646D01*
X131890Y59383D01*
X132152Y58924D01*
X132218Y58399D01*
X132152Y57874D01*
X131890Y57415D01*
X131496Y57152D01*
X131102Y57087D01*
G01X136811Y61024D02*
Y57087D01*
G01Y57677D02*
X136548Y57349D01*
X136155Y57152D01*
X135696Y57087D01*
X135170Y57218D01*
X134777Y57546D01*
X134515Y57940D01*
X134449Y58399D01*
X134515Y58858D01*
X134777Y59252D01*
X135170Y59580D01*
X135696Y59711D01*
X136155Y59646D01*
X136483Y59515D01*
X136811Y59252D01*
G01X140157Y57087D02*
X139764Y57152D01*
X139370Y57415D01*
X139107Y57874D01*
X138976Y58399D01*
X139107Y58924D01*
X139370Y59383D01*
X139764Y59646D01*
X140157Y59711D01*
X140551Y59646D01*
X140945Y59383D01*
X141207Y58924D01*
X141273Y58399D01*
X141207Y57874D01*
X140945Y57415D01*
X140551Y57152D01*
X140157Y57087D01*
G01X143767D02*
Y59711D01*
G01Y59186D02*
X144094Y59449D01*
X144422Y59646D01*
X144882Y59711D01*
X145210Y59646D01*
X145604Y59449D01*
G01X150394Y57087D02*
Y59711D01*
G01Y59252D02*
X150131Y59515D01*
X149737Y59646D01*
X149278Y59711D01*
X148819Y59580D01*
X148425Y59318D01*
X148163Y58924D01*
X148031Y58399D01*
X148163Y57874D01*
X148425Y57480D01*
X148819Y57218D01*
X149278Y57087D01*
X149737Y57152D01*
X150131Y57349D01*
X150394Y57611D01*
G01X116404Y51181D02*
Y55118D01*
X118110Y51837D01*
X119816Y55118D01*
Y51181D01*
G01X123819D02*
Y53806D01*
G01Y53346D02*
X123556Y53609D01*
X123163Y53740D01*
X122704Y53806D01*
X122244Y53674D01*
X121850Y53412D01*
X121588Y53019D01*
X121457Y52493D01*
X121588Y51969D01*
X121850Y51575D01*
X122244Y51312D01*
X122704Y51181D01*
X123163Y51247D01*
X123556Y51444D01*
X123819Y51706D01*
G01X126247Y51181D02*
Y53806D01*
G01Y53281D02*
X126575Y53543D01*
X126903Y53740D01*
X127362Y53806D01*
X127690Y53740D01*
X128084Y53543D01*
G01X131693Y53806D02*
Y51181D01*
G01Y54856D02*
X131562Y54921D01*
Y55052D01*
X131693Y55118D01*
X131824Y55052D01*
Y54921D01*
X131693Y54856D01*
G01X137402Y51181D02*
Y53806D01*
G01Y53346D02*
X137139Y53609D01*
X136745Y53740D01*
X136286Y53806D01*
X135827Y53674D01*
X135433Y53412D01*
X135170Y53019D01*
X135039Y52493D01*
X135170Y51969D01*
X135433Y51575D01*
X135827Y51312D01*
X136286Y51181D01*
X136745Y51247D01*
X137139Y51444D01*
X137402Y51706D01*
G01X95276Y51969D02*
X94750Y52034D01*
X94291Y52296D01*
X93898Y52690D01*
X93635Y53150D01*
X93504Y53674D01*
Y54200D01*
X93635Y54724D01*
X93898Y55184D01*
X94291Y55578D01*
X94750Y55840D01*
X95276Y55906D01*
X95800Y55840D01*
X96260Y55578D01*
X96654Y55184D01*
X96916Y54724D01*
X97047Y54200D01*
Y53674D01*
X96916Y53150D01*
X96654Y52690D01*
X96260Y52296D01*
X95800Y52034D01*
X95276Y51969D01*
G01X95800Y53019D02*
X96588Y51969D01*
G01X100591D02*
Y55906D01*
X98163Y53084D01*
X101444D01*
G01X113092Y72161D02*
X112698Y72358D01*
X112239Y72489D01*
X111714D01*
X111123Y72293D01*
X110664Y71965D01*
X110336Y71571D01*
X110073Y70915D01*
X110007Y70324D01*
X110139Y69733D01*
X110336Y69340D01*
X110730Y68946D01*
X111189Y68683D01*
X111648Y68552D01*
X112107D01*
X112567Y68683D01*
X112960Y68880D01*
X113289Y69143D01*
G01X114929Y71833D02*
X115322Y72227D01*
X115782Y72424D01*
X116307Y72489D01*
X116963Y72358D01*
X117422Y72030D01*
X117554Y71636D01*
X117488Y71243D01*
X117226Y70915D01*
X115913Y70258D01*
X115322Y69799D01*
X114929Y69143D01*
X114798Y68552D01*
X117554D01*
G01X117422Y93824D02*
Y97761D01*
X118735D01*
X119259Y97564D01*
X119653Y97302D01*
X119981Y96908D01*
X120244Y96448D01*
X120309Y95793D01*
X120244Y95136D01*
X119981Y94677D01*
X119653Y94283D01*
X119259Y94021D01*
X118735Y93824D01*
X117422D01*
G01X123393D02*
Y97761D01*
X122606Y96974D01*
G01Y93824D02*
X124181D01*
G01X107743Y141732D02*
Y145669D01*
X109383D01*
X109908Y145472D01*
X110236Y145210D01*
X110367Y144685D01*
X110236Y144160D01*
X109843Y143832D01*
X109383Y143635D01*
X107743D01*
G01X109383D02*
X110367Y141732D01*
G01X112139Y142520D02*
X112533Y142060D01*
X113057Y141798D01*
X113648Y141732D01*
X114173Y141798D01*
X114698Y142126D01*
X115026Y142520D01*
X115092Y142913D01*
X114961Y143372D01*
X114501Y143701D01*
X114042Y143832D01*
X113452D01*
G01X114042D02*
X114436Y144029D01*
X114764Y144357D01*
X114895Y144751D01*
X114764Y145144D01*
X114436Y145472D01*
X113845Y145669D01*
X113255Y145604D01*
X112664Y145341D01*
G01X118110Y145669D02*
X117585Y145538D01*
X117192Y145210D01*
X116929Y144816D01*
X116732Y144291D01*
X116667Y143701D01*
X116732Y143110D01*
X116929Y142585D01*
X117192Y142191D01*
X117585Y141863D01*
X118110Y141732D01*
X118635Y141863D01*
X119029Y142191D01*
X119291Y142585D01*
X119488Y143110D01*
X119554Y143701D01*
X119488Y144291D01*
X119291Y144816D01*
X119029Y145210D01*
X118635Y145538D01*
X118110Y145669D01*
G01X137795Y45669D02*
Y49606D01*
X135367Y46785D01*
X138648D01*
G01X140092Y46457D02*
X140485Y45997D01*
X141010Y45735D01*
X141601Y45669D01*
X142126Y45735D01*
X142651Y46063D01*
X142979Y46457D01*
X143044Y46850D01*
X142913Y47309D01*
X142454Y47638D01*
X141995Y47769D01*
X141404D01*
G01X141995D02*
X142389Y47966D01*
X142717Y48294D01*
X142848Y48688D01*
X142717Y49081D01*
X142389Y49409D01*
X141798Y49606D01*
X141207Y49541D01*
X140617Y49278D01*
G01X144816Y48950D02*
X145210Y49344D01*
X145669Y49541D01*
X146194Y49606D01*
X146850Y49475D01*
X147310Y49147D01*
X147441Y48753D01*
X147375Y48359D01*
X147113Y48031D01*
X145800Y47375D01*
X145210Y46916D01*
X144816Y46260D01*
X144685Y45669D01*
X147441D01*
G01X151115Y47769D02*
X151378Y47966D01*
X151575Y48294D01*
X151706Y48753D01*
X151575Y49147D01*
X151312Y49409D01*
X150853Y49606D01*
X149081D01*
Y45669D01*
X151247D01*
X151706Y45932D01*
X151969Y46326D01*
X152100Y46785D01*
X151969Y47244D01*
X151575Y47638D01*
X151115Y47769D01*
X149081D01*
G01X128871Y64173D02*
X126247D01*
Y68110D01*
X128871D01*
G01X127822Y66207D02*
X126247D01*
G01X130971Y64173D02*
Y66798D01*
G01Y66142D02*
X131233Y66470D01*
X131627Y66732D01*
X132152Y66798D01*
X132611Y66732D01*
X133005Y66470D01*
X133202Y66011D01*
Y64173D01*
G01X137795D02*
Y66798D01*
G01Y66339D02*
X137533Y66601D01*
X137139Y66732D01*
X136680Y66798D01*
X136220Y66667D01*
X135827Y66404D01*
X135564Y66011D01*
X135433Y65485D01*
X135564Y64961D01*
X135827Y64567D01*
X136220Y64304D01*
X136680Y64173D01*
X137139Y64239D01*
X137533Y64436D01*
X137795Y64698D01*
G01X142192Y66470D02*
X141732Y66732D01*
X141339Y66798D01*
X140814Y66667D01*
X140420Y66404D01*
X140157Y65945D01*
X140092Y65485D01*
X140157Y65026D01*
X140420Y64632D01*
X140814Y64304D01*
X141339Y64173D01*
X141798Y64304D01*
X142192Y64567D01*
G01X144554Y64173D02*
Y68110D01*
G01Y66207D02*
X144882Y66535D01*
X145210Y66732D01*
X145735Y66798D01*
X146129Y66732D01*
X146588Y66470D01*
X146785Y66076D01*
Y64173D01*
G01X149213Y65945D02*
X151312D01*
X151115Y66404D01*
X150787Y66667D01*
X150328Y66798D01*
X149869Y66732D01*
X149475Y66535D01*
X149213Y66076D01*
X149081Y65682D01*
Y65289D01*
X149213Y64895D01*
X149541Y64501D01*
X149934Y64239D01*
X150394Y64173D01*
X150853Y64304D01*
X151312Y64698D01*
G01X139468Y73383D02*
X139796Y72990D01*
X140190Y72727D01*
X140649Y72596D01*
X141174Y72727D01*
X141568Y72990D01*
X141961Y73383D01*
X142093Y73908D01*
Y76533D01*
G01X145177Y72596D02*
X145308Y73449D01*
X145505Y74171D01*
X145767Y74827D01*
X146095Y75549D01*
X146620Y76533D01*
X143996D01*
G01X138550Y148031D02*
X138878Y147638D01*
X139272Y147375D01*
X139731Y147244D01*
X140256Y147375D01*
X140650Y147638D01*
X141043Y148031D01*
X141174Y148556D01*
Y151181D01*
G01X143143Y150525D02*
X143537Y150919D01*
X143996Y151115D01*
X144521Y151181D01*
X145177Y151050D01*
X145637Y150722D01*
X145768Y150328D01*
X145702Y149934D01*
X145440Y149606D01*
X144127Y148950D01*
X143537Y148491D01*
X143143Y147835D01*
X143012Y147244D01*
X145768D01*
G54D11*
G01X22200Y36250D02*
X6200D01*
G01D02*
Y43750D01*
G01D02*
X22200D01*
G01D02*
Y36250D01*
G01X24414Y82490D02*
X40414D01*
G01Y74990D02*
X24414D01*
G01D02*
Y82490D01*
G01X39759Y105305D02*
X23759D01*
G01D02*
Y112805D01*
G01D02*
X39759D01*
G01X59050Y34439D02*
X43050D01*
G01D02*
Y41939D01*
G01D02*
X59050D01*
G01D02*
Y34439D01*
G01X59838Y52549D02*
X43838D01*
G01D02*
Y60049D01*
G01D02*
X59838D01*
G01D02*
Y52549D01*
G01X40414Y82490D02*
Y74990D01*
G01X39759Y112805D02*
Y105305D01*
G01X67318Y143888D02*
X51318D01*
G01D02*
Y151388D01*
G01D02*
X67318D01*
G01X99208Y28533D02*
X83208D01*
G01D02*
Y36033D01*
G01X81934Y57481D02*
X81875Y59843D01*
G01X87205Y52005D02*
X82669Y51902D01*
G01X88184Y56900D02*
Y52362D01*
G01X83208Y36033D02*
X99208D01*
G01X73829Y55113D02*
Y39113D01*
G01D02*
X66329D01*
G01D02*
Y55113D01*
G01D02*
X73829D01*
G01X87205Y65391D02*
X82669Y65287D01*
G01X88184Y65354D02*
Y61417D01*
G01X76373Y102963D02*
Y98425D01*
G01X63381Y102963D02*
Y98425D01*
G01X70866Y97643D02*
X68504D01*
G01X66929Y103942D02*
X63179D01*
G01X75984D02*
X72234D01*
G01X99602Y94281D02*
X83602D01*
G01D02*
Y101781D01*
G01D02*
X99602D01*
G01X87795Y132288D02*
X85226D01*
G01X79917Y130915D02*
Y126378D01*
G01X83858Y125595D02*
X80108D01*
G01X92913D02*
X89163D01*
G01X67318Y151388D02*
Y143888D01*
G01X99208Y36033D02*
Y28533D01*
G01X125980Y77352D02*
X109980D01*
G01D02*
Y84852D01*
G01D02*
X125980D01*
G01X99602Y101781D02*
Y94281D01*
G01X133847Y102624D02*
X118047D01*
G01D02*
Y107024D01*
G01D02*
X117197Y107874D01*
G01D02*
X118047Y108724D01*
G01D02*
Y113124D01*
G01D02*
X133847D01*
G01X92909Y130915D02*
Y126378D01*
G01X115935Y122446D02*
Y138446D01*
G01D02*
X123435D01*
G01Y122446D02*
X115935D01*
G01X136609Y28140D02*
X120609D01*
G01D02*
Y35640D01*
G01X136609D02*
Y28140D01*
G01X120609Y35640D02*
X136609D01*
G01X125980Y84852D02*
Y77352D01*
G01X133847Y113124D02*
Y102624D01*
G01X123435Y138446D02*
Y122446D01*
G54D12*
G01X5630Y103031D02*
X15630D01*
Y83031D01*
X5630D01*
Y103031D01*
G01X5236Y63504D02*
Y73504D01*
X15236D01*
Y63504D01*
X5236D01*
G01X22559Y141850D02*
Y151850D01*
X42559D01*
Y141850D01*
X22559D01*
G01X50669Y16811D02*
Y6811D01*
X30669D01*
Y16811D01*
X50669D01*
G01X99724Y6811D02*
Y16811D01*
X109724D01*
Y6811D01*
X99724D01*
G01X142244Y76496D02*
Y86496D01*
X152244D01*
Y76496D01*
X142244D01*
G01X140276Y143189D02*
X150276D01*
Y123189D01*
X140276D01*
Y143189D01*
M02*
